<svg width="118" height="42" viewBox="0 0 118 42" fill="none" xmlns="http://www.w3.org/2000/svg">
<path d="M21.5487 3.6062L25.094 5.65303H29.0655L26.3 0.863064L21.5487 3.6062Z" fill="#D20191" fill-opacity="0.79"/>
<path d="M35.7775 6.27551H30.1436L32.1294 9.71494L35.7775 11.8212V6.27551Z" fill="#D20191" fill-opacity="0.79"/>
<path d="M31.0512 9.09246L29.4249 6.27551H26.1721L31.0512 9.09246Z" fill="#D20191" fill-opacity="0.79"/>
<path d="M35.7775 12.5399L32.7519 10.7931L35.7775 16.0336V12.5399Z" fill="#D20191" fill-opacity="0.79"/>
<path d="M36.4 12.8993V17.1118L38.3419 20.4753L41.1369 15.6342L36.4 12.8993Z" fill="#D20191" fill-opacity="0.79"/>
<path d="M37.9825 21.0978L36.4 18.3568V23.8389L37.9825 21.0978Z" fill="#D20191" fill-opacity="0.79"/>
<path d="M38.3419 21.7203L36.4 25.0838V29.1738L41.0839 26.4695L38.3419 21.7203Z" fill="#D20191" fill-opacity="0.79"/>
<path d="M35.7775 29.5332V26.162L32.858 31.2188L35.7775 29.5332Z" fill="#D20191" fill-opacity="0.79"/>
<path d="M30.3078 35.6358H35.7775V30.2519L32.2355 32.2969L30.3078 35.6358Z" fill="#D20191" fill-opacity="0.79"/>
<path d="M29.589 35.6358L31.1573 32.9194L26.4524 35.6358H29.589Z" fill="#D20191" fill-opacity="0.79"/>
<path d="M29.2296 36.2583H25.3742L21.7562 38.3471L26.4568 41.061L29.2296 36.2583Z" fill="#D20191" fill-opacity="0.79"/>
<path d="M21.1338 37.9877L24.1293 36.2583H18.1383L21.1338 37.9877Z" fill="#D20191" fill-opacity="0.79"/>
<path d="M20.5113 38.3471L16.8933 36.2583H12.8331L15.6571 41.1497L20.5113 38.3471Z" fill="#D20191" fill-opacity="0.79"/>
<path d="M12.4737 35.6358H15.8151L10.803 32.742L12.4737 35.6358Z" fill="#D20191" fill-opacity="0.79"/>
<path d="M6.2097 30.0901V35.6358H11.7549L9.7248 32.1195L6.2097 30.0901Z" fill="#D20191" fill-opacity="0.79"/>
<path d="M6.2097 29.3713L9.10232 31.0414L6.2097 26.0312V29.3713Z" fill="#D20191" fill-opacity="0.79"/>
<path d="M5.58722 29.0119V24.9531L3.60099 21.5128L0.850323 26.2771L5.58722 29.0119Z" fill="#D20191" fill-opacity="0.79"/>
<path d="M3.96038 20.8903L5.58722 23.7081V18.0725L3.96038 20.8903Z" fill="#D20191" fill-opacity="0.79"/>
<path d="M3.60099 20.2678L5.58722 16.8276V12.8216L0.873226 15.5432L3.60099 20.2678Z" fill="#D20191" fill-opacity="0.79"/>
<path d="M6.2097 12.4622V15.7494L9.05652 10.8186L6.2097 12.4622Z" fill="#D20191" fill-opacity="0.79"/>
<path d="M6.2097 11.7434L9.679 9.74042L11.6795 6.27551H6.2097V11.7434Z" fill="#D20191" fill-opacity="0.79"/>
<path d="M12.3982 6.27551L10.7572 9.11794L15.6804 6.27551H12.3982Z" fill="#D20191" fill-opacity="0.79"/>
<path d="M18.0035 5.65303H23.849L20.9263 3.96559L18.0035 5.65303Z" fill="#D20191" fill-opacity="0.79"/>
<path d="M12.7576 5.65303H16.7586L20.3038 3.6062L15.5305 0.850323L12.7576 5.65303Z" fill="#D20191" fill-opacity="0.79"/>
<path d="M50.8378 7.93665C51.9064 7.93665 52.7311 8.1597 53.3121 8.60581C53.9035 9.04155 54.1992 9.75221 54.1992 10.7378C54.1992 11.2254 54.1058 11.6715 53.919 12.0761C53.7323 12.4807 53.4522 12.8127 53.0787 13.0721C52.7156 13.3315 52.2591 13.4975 51.7092 13.5701L51.6314 13.1966C52.202 13.2381 52.7208 13.3833 53.1876 13.6323C53.6649 13.871 54.0435 14.1978 54.3237 14.6127C54.6141 15.0174 54.7594 15.4946 54.7594 16.0444C54.7594 16.5424 54.6608 16.9782 54.4637 17.3517C54.277 17.7148 54.0176 18.0208 53.6856 18.2698C53.364 18.5084 52.9957 18.69 52.5807 18.8145C52.1657 18.9286 51.73 18.9857 51.2735 18.9857H48.3945V7.93665H50.8378ZM51.1957 13.1032C51.9842 13.1032 52.5496 12.8905 52.8919 12.4652C53.2447 12.0398 53.4211 11.5107 53.4211 10.8779C53.4211 10.0894 53.1876 9.52397 52.7208 9.18161C52.2643 8.83924 51.647 8.66806 50.8689 8.66806H49.1571V13.1032H51.1957ZM51.2424 18.2854C51.7404 18.2854 52.1968 18.2076 52.6118 18.0519C53.0268 17.886 53.3588 17.637 53.6078 17.305C53.8568 16.973 53.9813 16.5632 53.9813 16.0756C53.9813 15.5361 53.8412 15.1055 53.5611 14.7839C53.281 14.4519 52.9283 14.2133 52.5029 14.0681C52.0775 13.9125 51.6418 13.8346 51.1957 13.8346H49.1571V18.2854H51.2424Z" fill="url(#paint0_linear_102_130)"/>
<path d="M59.7524 7.93665H66.5685V8.66806H60.5149V13.0565H65.9616V13.788H60.5149V18.2543H66.7864V18.9857H59.7524V7.93665Z" fill="url(#paint1_linear_102_130)"/>
<path d="M70.9052 18.9857L75.5738 7.45422H75.6361L80.3046 18.9857H79.4487L75.3871 8.66806L75.9162 8.37238L71.6677 18.9857H70.9052ZM73.1617 14.6127H78.0637L78.2816 15.3286H72.9749L73.1617 14.6127Z" fill="url(#paint2_linear_102_130)"/>
<path d="M85.6303 15.2508C85.6303 15.894 85.7599 16.4491 86.0193 16.9159C86.289 17.3828 86.6522 17.7459 87.1086 18.0053C87.5651 18.2543 88.0839 18.3787 88.6648 18.3787C89.2562 18.3787 89.7801 18.2543 90.2366 18.0053C90.7035 17.7459 91.0666 17.3828 91.3259 16.9159C91.5957 16.4491 91.7306 15.894 91.7306 15.2508V7.93665H92.4775V15.2975C92.4775 16.0963 92.3064 16.781 91.964 17.3517C91.632 17.9223 91.1755 18.358 90.5945 18.6589C90.0239 18.9597 89.3807 19.1102 88.6648 19.1102C87.949 19.1102 87.3006 18.9597 86.7196 18.6589C86.149 18.358 85.6977 17.9223 85.3657 17.3517C85.0337 16.781 84.8677 16.0963 84.8677 15.2975V7.93665H85.6303V15.2508Z" fill="url(#paint3_linear_102_130)"/>
<path d="M97.2244 7.93665H104.461V8.66806H101.208V18.9857H100.446V8.66806H97.2244V7.93665Z" fill="url(#paint4_linear_102_130)"/>
<path d="M112.275 15.0485L108.151 7.93665H109.085L112.804 14.4104L112.54 14.426L116.244 7.93665H117.162L113.038 15.0485V18.9857H112.275V15.0485Z" fill="url(#paint5_linear_102_130)"/>
<path d="M58.4873 24.9511C58.1657 24.7955 57.7715 24.6503 57.3046 24.5154C56.8377 24.3805 56.3709 24.3131 55.904 24.3131C55.1778 24.3131 54.5968 24.4946 54.1611 24.8578C53.7253 25.2209 53.5075 25.6774 53.5075 26.2272C53.5075 26.6422 53.632 26.9898 53.881 27.2699C54.1299 27.5396 54.4567 27.773 54.8614 27.9702C55.266 28.1569 55.6965 28.3385 56.153 28.5148C56.5161 28.6497 56.874 28.8001 57.2268 28.9661C57.5899 29.1321 57.9167 29.3344 58.2072 29.573C58.4977 29.8117 58.7259 30.1073 58.8919 30.4601C59.0683 30.8128 59.1565 31.2486 59.1565 31.7673C59.1565 32.3794 59.0112 32.9241 58.7207 33.4013C58.4302 33.8682 58.0256 34.2313 57.5069 34.4906C56.9882 34.75 56.3864 34.8797 55.7017 34.8797C55.1519 34.8797 54.6487 34.8122 54.1922 34.6774C53.7461 34.5425 53.3518 34.3869 53.0095 34.2105C52.6775 34.0238 52.4129 33.8682 52.2158 33.7437L52.5737 33.1212C52.802 33.2872 53.0769 33.4532 53.3985 33.6192C53.7305 33.7852 54.0884 33.9252 54.4723 34.0393C54.8562 34.1535 55.24 34.2105 55.6239 34.2105C56.07 34.2105 56.5006 34.1223 56.9155 33.946C57.3409 33.7696 57.6885 33.505 57.9582 33.1523C58.2383 32.7892 58.3784 32.3327 58.3784 31.7828C58.3784 31.2537 58.2487 30.8284 57.9893 30.5068C57.73 30.1748 57.398 29.905 56.9934 29.6975C56.5887 29.49 56.1582 29.3033 55.7017 29.1373C55.349 29.0024 54.9962 28.8624 54.6435 28.7171C54.2908 28.5615 53.9691 28.38 53.6786 28.1725C53.3882 27.9546 53.1547 27.6952 52.9784 27.3944C52.8124 27.0935 52.7294 26.7304 52.7294 26.305C52.7294 25.7759 52.8642 25.3142 53.134 24.92C53.4037 24.5258 53.7668 24.2197 54.2233 24.0018C54.6902 23.7736 55.2193 23.6543 55.8106 23.6439C56.3294 23.6439 56.8533 23.7114 57.3824 23.8462C57.9219 23.9811 58.3887 24.1523 58.783 24.3598L58.4873 24.9511Z" fill="url(#paint6_linear_102_130)"/>
<path d="M71.4357 23.7062V34.7552H70.6732V29.5575H64.0127V34.7552H63.2501V23.7062H64.0127V28.8416H70.6732V23.7062H71.4357Z" fill="url(#paint7_linear_102_130)"/>
<path d="M76.197 23.7062H76.9595V34.7552H76.197V23.7062Z" fill="url(#paint8_linear_102_130)"/>
<path d="M81.7276 23.7062H88.5437V24.4376H82.4901V28.8261H87.9368V29.5575H82.4901V34.0238H88.7616V34.7552H81.7276V23.7062Z" fill="url(#paint9_linear_102_130)"/>
<path d="M92.9115 23.7062H93.6741V34.0238H99.7277V34.7552H92.9115V23.7062Z" fill="url(#paint10_linear_102_130)"/>
<path d="M103.533 34.7552V23.7062H106.257C107.325 23.7062 108.233 23.8774 108.98 24.2197C109.737 24.5517 110.349 24.9926 110.816 25.5425C111.283 26.0923 111.625 26.6941 111.843 27.3477C112.061 28.0013 112.17 28.6497 112.17 29.2929C112.17 30.1333 112.025 30.8906 111.734 31.565C111.444 32.229 111.044 32.7996 110.536 33.2768C110.038 33.754 109.468 34.1223 108.824 34.3817C108.181 34.6307 107.502 34.7552 106.786 34.7552H103.533ZM104.296 34.0238H106.583C107.247 34.0238 107.87 33.9148 108.451 33.697C109.032 33.4791 109.54 33.1627 109.976 32.7477C110.422 32.3327 110.77 31.8347 111.019 31.2537C111.268 30.6624 111.392 29.9932 111.392 29.2462C111.392 28.6134 111.283 28.0117 111.065 27.441C110.858 26.8601 110.541 26.3465 110.116 25.9004C109.691 25.4543 109.167 25.1016 108.544 24.8422C107.922 24.5828 107.195 24.4531 106.365 24.4531H104.296V34.0238Z" fill="url(#paint11_linear_102_130)"/>
<path d="M15.3995 19.772V18.496C15.3995 18.2947 15.5642 18.1314 15.7675 18.1314H18.9875C19.1908 18.1314 19.3555 18.2947 19.3555 18.496V19.772H15.3995Z" fill="url(#paint12_linear_102_130)"/>
<path d="M16.2275 17.1289V12.5895C16.2275 12.5225 16.2646 12.4608 16.3242 12.429L18.3483 11.3493C18.4709 11.2839 18.6195 11.3719 18.6195 11.5098V17.1289C18.6195 17.2295 18.5371 17.3112 18.4355 17.3112H16.4115C16.3099 17.3112 16.2275 17.2295 16.2275 17.1289Z" fill="url(#paint13_linear_102_130)"/>
<path fill-rule="evenodd" clip-rule="evenodd" d="M19.4475 30.709H15.3075C15.1042 30.709 14.9395 30.5458 14.9395 30.3445V20.9568C14.9395 20.7555 15.1042 20.5923 15.3075 20.5923H19.4475C19.6508 20.5923 19.8155 20.7555 19.8155 20.9568V30.3445C19.8155 30.5458 19.6508 30.709 19.4475 30.709ZM16.0787 21.4125C15.9068 21.4125 15.7675 21.5519 15.7675 21.7238V25.7495C15.7675 25.9214 15.9068 26.0608 16.0787 26.0608H16.2842C16.4561 26.0608 16.5955 25.9214 16.5955 25.7495V21.7238C16.5955 21.5519 16.4561 21.4125 16.2842 21.4125H16.0787ZM16.0787 28.0659C15.9068 28.0659 15.7675 27.9266 15.7675 27.7547V26.8277C15.7675 26.6558 15.9068 26.5165 16.0787 26.5165H16.2842C16.4561 26.5165 16.5955 26.6558 16.5955 26.8277V27.7547C16.5955 27.9266 16.4561 28.0659 16.2842 28.0659H16.0787Z" fill="url(#paint14_linear_102_130)"/>
<path d="M25.7101 30.8127H23.7546C23.6401 30.8127 23.5472 30.7198 23.5472 30.6052V20.7623C23.5472 20.6477 23.6401 20.5548 23.7546 20.5548H25.7101C25.8247 20.5548 25.9175 20.6477 25.9175 20.7623V30.6052C25.9175 30.7198 25.8247 30.8127 25.7101 30.8127Z" fill="url(#paint15_linear_102_130)"/>
<path d="M25.7271 19.8285H23.7376C23.6299 19.8285 23.5401 19.7461 23.5308 19.6388L23.293 16.8766C23.2826 16.7554 23.3782 16.6513 23.4998 16.6513H25.9649C26.0866 16.6513 26.1821 16.7554 26.1717 16.8766L25.9339 19.6388C25.9246 19.7461 25.8348 19.8285 25.7271 19.8285Z" fill="url(#paint16_linear_102_130)"/>
<path d="M26.2313 15.9251H23.2367C23.1494 15.9251 23.071 15.8693 23.0416 15.7871C22.1923 13.4093 22.2085 12.3993 23.0296 11.2865C23.0679 11.2346 23.1291 11.2046 23.1935 11.2046H26.2702C26.3352 11.2046 26.3969 11.2352 26.4351 11.2877C27.2769 12.4438 27.3105 13.4662 26.4248 15.7913C26.3943 15.8713 26.3169 15.9251 26.2313 15.9251Z" fill="url(#paint17_linear_102_130)"/>
<defs>
<linearGradient id="paint0_linear_102_130" x1="26.4755" y1="14.8993" x2="143.948" y2="14.8993" gradientUnits="userSpaceOnUse">
<stop stop-color="#4C00AC"/>
<stop offset="1" stop-color="#F6018A"/>
</linearGradient>
<linearGradient id="paint1_linear_102_130" x1="26.4755" y1="14.8993" x2="143.948" y2="14.8993" gradientUnits="userSpaceOnUse">
<stop stop-color="#4C00AC"/>
<stop offset="1" stop-color="#F6018A"/>
</linearGradient>
<linearGradient id="paint2_linear_102_130" x1="26.4755" y1="14.8993" x2="143.948" y2="14.8993" gradientUnits="userSpaceOnUse">
<stop stop-color="#4C00AC"/>
<stop offset="1" stop-color="#F6018A"/>
</linearGradient>
<linearGradient id="paint3_linear_102_130" x1="26.4755" y1="14.8993" x2="143.948" y2="14.8993" gradientUnits="userSpaceOnUse">
<stop stop-color="#4C00AC"/>
<stop offset="1" stop-color="#F6018A"/>
</linearGradient>
<linearGradient id="paint4_linear_102_130" x1="26.4755" y1="14.8993" x2="143.948" y2="14.8993" gradientUnits="userSpaceOnUse">
<stop stop-color="#4C00AC"/>
<stop offset="1" stop-color="#F6018A"/>
</linearGradient>
<linearGradient id="paint5_linear_102_130" x1="26.4755" y1="14.8993" x2="143.948" y2="14.8993" gradientUnits="userSpaceOnUse">
<stop stop-color="#4C00AC"/>
<stop offset="1" stop-color="#F6018A"/>
</linearGradient>
<linearGradient id="paint6_linear_102_130" x1="26.4755" y1="30.6157" x2="143.948" y2="30.6157" gradientUnits="userSpaceOnUse">
<stop stop-color="#4C00AC"/>
<stop offset="1" stop-color="#F6018A"/>
</linearGradient>
<linearGradient id="paint7_linear_102_130" x1="26.4755" y1="30.6157" x2="143.948" y2="30.6157" gradientUnits="userSpaceOnUse">
<stop stop-color="#4C00AC"/>
<stop offset="1" stop-color="#F6018A"/>
</linearGradient>
<linearGradient id="paint8_linear_102_130" x1="26.4755" y1="30.6157" x2="143.948" y2="30.6157" gradientUnits="userSpaceOnUse">
<stop stop-color="#4C00AC"/>
<stop offset="1" stop-color="#F6018A"/>
</linearGradient>
<linearGradient id="paint9_linear_102_130" x1="26.4755" y1="30.6157" x2="143.948" y2="30.6157" gradientUnits="userSpaceOnUse">
<stop stop-color="#4C00AC"/>
<stop offset="1" stop-color="#F6018A"/>
</linearGradient>
<linearGradient id="paint10_linear_102_130" x1="26.4755" y1="30.6157" x2="143.948" y2="30.6157" gradientUnits="userSpaceOnUse">
<stop stop-color="#4C00AC"/>
<stop offset="1" stop-color="#F6018A"/>
</linearGradient>
<linearGradient id="paint11_linear_102_130" x1="26.4755" y1="30.6157" x2="143.948" y2="30.6157" gradientUnits="userSpaceOnUse">
<stop stop-color="#4C00AC"/>
<stop offset="1" stop-color="#F6018A"/>
</linearGradient>
<linearGradient id="paint12_linear_102_130" x1="1.85361" y1="3.27378" x2="47.4043" y2="48.756" gradientUnits="userSpaceOnUse">
<stop stop-color="#D631A3"/>
<stop offset="0.834097" stop-color="#6C00A5"/>
</linearGradient>
<linearGradient id="paint13_linear_102_130" x1="1.85361" y1="3.27378" x2="47.4043" y2="48.756" gradientUnits="userSpaceOnUse">
<stop stop-color="#D631A3"/>
<stop offset="0.834097" stop-color="#6C00A5"/>
</linearGradient>
<linearGradient id="paint14_linear_102_130" x1="1.85361" y1="3.27378" x2="47.4043" y2="48.756" gradientUnits="userSpaceOnUse">
<stop stop-color="#D631A3"/>
<stop offset="0.834097" stop-color="#6C00A5"/>
</linearGradient>
<linearGradient id="paint15_linear_102_130" x1="9.88018" y1="3.13357" x2="55.7693" y2="46.6174" gradientUnits="userSpaceOnUse">
<stop stop-color="#D631A3"/>
<stop offset="0.834097" stop-color="#6C00A5"/>
</linearGradient>
<linearGradient id="paint16_linear_102_130" x1="9.88018" y1="3.13357" x2="55.7693" y2="46.6174" gradientUnits="userSpaceOnUse">
<stop stop-color="#D631A3"/>
<stop offset="0.834097" stop-color="#6C00A5"/>
</linearGradient>
<linearGradient id="paint17_linear_102_130" x1="9.88018" y1="3.13357" x2="55.7693" y2="46.6174" gradientUnits="userSpaceOnUse">
<stop stop-color="#D631A3"/>
<stop offset="0.834097" stop-color="#6C00A5"/>
</linearGradient>
</defs>
</svg>
